<?xml version="1.0" standalone="no"?>
<!DOCTYPE svg PUBLIC "-//W3C//DTD SVG 20010904//EN"
 "http://www.w3.org/TR/2001/REC-SVG-20010904/DTD/svg10.dtd">
<svg version="1.0" xmlns="http://www.w3.org/2000/svg"
 width="260.000000pt" height="260.000000pt" viewBox="0 0 260.000000 260.000000"
 preserveAspectRatio="xMidYMid meet">
<metadata>
Created by potrace 1.11, written by Peter Selinger 2001-2013
</metadata>
<g transform="translate(0.000000,260.000000) scale(0.100000,-0.100000)"
fill="#000000" stroke="none">
<path d="M0 1300 l0 -1300 1300 0 1300 0 0 1300 0 1300 -1300 0 -1300 0 0
-1300z m2520 -5 l0 -1215 -1215 0 -1215 0 0 1215 0 1215 1215 0 1215 0 0
-1215z"/>
<path d="M110 1295 l0 -1195 1195 0 1195 0 0 1195 0 1195 -1195 0 -1195 0 0
-1195z m816 438 c-3 -10 -33 -135 -67 -278 -68 -290 -87 -351 -126 -407 -62
-90 -175 -128 -286 -97 -43 12 -111 68 -133 110 -14 27 -13 29 28 68 l43 40
32 -38 c56 -66 127 -77 187 -30 45 36 65 93 127 357 33 142 62 265 65 275 4
14 17 17 70 17 58 0 65 -2 60 -17z m684 3 c0 -8 -5 -37 -12 -65 l-11 -51 -198
0 c-180 0 -198 -2 -203 -17 -3 -10 -12 -49 -21 -88 -8 -38 -18 -78 -21 -87 -5
-17 8 -18 171 -18 l177 0 -6 -27 c-4 -16 -12 -45 -17 -65 l-10 -38 -173 0
c-130 0 -175 -3 -178 -12 -3 -7 -20 -82 -39 -165 l-34 -153 -64 0 c-61 0 -63
1 -57 23 3 12 45 192 93 399 l88 378 258 0 c216 0 257 -2 257 -14z m513 -24
c121 -60 176 -172 164 -335 -10 -150 -77 -272 -188 -346 -95 -63 -138 -73
-346 -78 -154 -4 -183 -3 -183 9 0 8 41 187 90 397 50 211 90 386 90 388 0 3
69 4 153 2 149 -4 154 -5 220 -37z"/>
<path d="M1845 1608 c-3 -7 -29 -119 -60 -248 -30 -129 -57 -246 -60 -259 l-6
-23 103 4 c88 3 112 7 160 31 105 51 167 147 176 269 8 115 -35 190 -127 223
-54 19 -180 21 -186 3z"/>
</g>
</svg>
